<?xml version="1.0" standalone="no"?>
<!DOCTYPE svg PUBLIC "-//W3C//DTD SVG 20010904//EN"
 "http://www.w3.org/TR/2001/REC-SVG-20010904/DTD/svg10.dtd">
<svg version="1.0" xmlns="http://www.w3.org/2000/svg"
 width="260.000000pt" height="260.000000pt" viewBox="0 0 260.000000 260.000000"
 preserveAspectRatio="xMidYMid meet">
<metadata>
Created by potrace 1.11, written by Peter Selinger 2001-2013
</metadata>
<g transform="translate(0.000000,260.000000) scale(0.100000,-0.100000)"
fill="#000000" stroke="none">
<path d="M1180 2553 c-369 -60 -827 -332 -931 -552 -26 -55 -32 -133 -14 -186
39 -112 195 -152 332 -85 109 54 165 148 179 300 9 100 21 133 63 182 76 86
219 136 355 125 163 -14 274 -122 312 -301 11 -55 11 -263 0 -456 -2 -30 -4
-66 -5 -80 -1 -23 -8 -27 -73 -44 -126 -31 -448 -141 -573 -195 -371 -160
-593 -348 -656 -554 -28 -90 -23 -244 10 -329 56 -144 174 -258 321 -308 82
-29 300 -36 425 -14 93 17 238 65 304 101 55 31 153 100 200 143 l34 31 29
-53 c75 -137 196 -207 368 -214 143 -5 255 26 378 107 l50 32 -49 48 c-26 26
-51 59 -55 73 -6 24 -11 26 -55 26 -97 0 -147 40 -176 139 -21 73 -21 144 2
766 22 592 23 688 13 774 -29 245 -187 428 -438 506 -53 17 -286 29 -350 18z
m284 -1350 c-4 -148 -16 -524 -19 -591 -3 -74 -29 -118 -104 -175 -144 -110
-352 -156 -482 -108 -96 36 -157 123 -175 246 -25 186 7 296 123 413 80 81
186 146 331 203 80 31 283 93 323 98 3 1 4 -38 3 -86z"/>
<path d="M2327 575 c-112 -58 -126 -214 -26 -285 45 -33 131 -38 179 -12 149
81 92 312 -77 312 -26 0 -60 -7 -76 -15z"/>
</g>
</svg>
